<?xml version="1.0" encoding="UTF-8"?><svg xmlns="http://www.w3.org/2000/svg" viewBox="0 0 271.36 314.47"><rect width="271.36" height="314.47" style="fill:#fff;"/><g id="Capa_1"><path d="M140.3,189.61v5.22l-66.76,40.1v59.36l-26.67,15.8c-20.7,12.26-46.87-2.66-46.87-26.71V31.1C0,6.83,26.59-8.05,47.27,4.63l26.27,16.11v186.73c0,9.58,10.43,15.52,18.67,10.63l39.28-23.27,6.65-3.94,2.16-1.28Z" style="fill:#3f5155;"/><path d="M140.3,61.66v64.19l-47.93-29.39c-8.24-5.05-18.83.88-18.83,10.54V20.73l66.76,40.93Z" style="fill:#3f5155;"/><polygon points="252.39 130.39 192.83 164.63 192.83 93.88 252.39 130.39" style="fill:#67b1b3;"/><path d="M192.83,93.88v70.75l-52.53,30.2v-5.22l35.24-20.87c8.01-4.75,8.1-16.31.16-21.18l-35.4-21.7V61.67l52.53,32.21Z" style="fill:#67b1b3;"/><polygon points="192.83 164.63 192.83 223.62 140.3 254.74 140.3 194.83 192.83 164.63" style="fill:#67b1b3;"/><path d="M271.02,163.99c-1.28,8.74-6.24,17.01-14.88,22.13l-63.31,37.5v-58.99l59.56-34.24,4.16,2.55c2.89,1.77,5.36,3.9,7.41,6.28,5.99,6.97,8.34,16.1,7.06,24.77Z" style="fill:#67b1b3;"/><polygon points="140.3 194.83 140.3 254.74 73.54 294.29 73.54 234.92 140.3 194.83" style="fill:#3f5155;"/><rect x="23.12" y="21.39" width="24.99" height="18.92" rx="4.54" ry="4.54" style="fill:#f7fcfa;"/><rect x="23.12" y="49.92" width="24.99" height="18.92" rx="4.54" ry="4.54" style="fill:#f7fcfa;"/><rect x="23.12" y="78.44" width="24.99" height="18.92" rx="4.54" ry="4.54" style="fill:#f7fcfa;"/><rect x="23.12" y="106.97" width="24.99" height="18.92" rx="4.54" ry="4.54" style="fill:#f7fcfa;"/><rect x="23.12" y="135.5" width="24.99" height="18.92" rx="4.54" ry="4.54" style="fill:#f7fcfa;"/><rect x="23.12" y="164.03" width="24.99" height="18.92" rx="4.54" ry="4.54" style="fill:#f7fcfa;"/><rect x="23.12" y="192.56" width="24.99" height="18.92" rx="4.54" ry="4.54" style="fill:#f7fcfa;"/><rect x="23.12" y="221.09" width="24.99" height="18.92" rx="4.54" ry="4.54" style="fill:#f7fcfa;"/><rect x="23.12" y="249.62" width="24.99" height="18.92" rx="4.54" ry="4.54" style="fill:#f7fcfa;"/><rect x="23.12" y="278.15" width="24.99" height="18.92" rx="4.54" ry="4.54" style="fill:#f7fcfa;"/><rect x="229.81" y="156.61" width="24.99" height="18.92" rx="4.54" ry="4.54" transform="translate(265.57 -126.76) rotate(60.12)" style="fill:#f7fcfa;"/><rect x="205.08" y="170.83" width="24.99" height="18.92" rx="4.54" ry="4.54" transform="translate(265.48 -98.18) rotate(60.12)" style="fill:#f7fcfa;"/><rect x="180.34" y="185.04" width="24.99" height="18.92" rx="4.54" ry="4.54" transform="translate(265.4 -69.6) rotate(60.12)" style="fill:#f7fcfa;"/><rect x="155.6" y="199.25" width="24.99" height="18.92" rx="4.54" ry="4.54" transform="translate(265.31 -41.02) rotate(60.12)" style="fill:#f7fcfa;"/><rect x="130.87" y="213.47" width="24.99" height="18.92" rx="4.54" ry="4.54" transform="translate(265.22 -12.45) rotate(60.12)" style="fill:#f7fcfa;"/><rect x="106.13" y="227.68" width="24.99" height="18.92" rx="4.54" ry="4.54" transform="translate(265.14 16.13) rotate(60.12)" style="fill:#f7fcfa;"/><rect x="81.4" y="241.9" width="24.99" height="18.92" rx="4.54" ry="4.54" transform="translate(265.05 44.71) rotate(60.12)" style="fill:#f7fcfa;"/></g></svg>