<?xml version="1.0" encoding="UTF-8"?><svg xmlns="http://www.w3.org/2000/svg" viewBox="0 0 1152.79 314.47"><rect width="1152.79" height="314.47" style="fill:#fff;"/><g id="Capa_1"><path d="M430.32,120.06c6.25,0,11.8,1.25,16.64,3.74,4.84,2.49,8.65,6.3,11.44,11.44,2.79,5.13,4.18,11.71,4.18,19.72v45.16h-22.88v-41.64c0-6.35-1.32-11.05-3.96-14.08-2.64-3.03-6.36-4.55-11.14-4.55-3.32,0-6.31.76-8.94,2.27-2.64,1.52-4.69,3.79-6.16,6.82-1.47,3.03-2.2,6.89-2.2,11.58v39.59h-22.88v-41.64c0-6.35-1.3-11.05-3.89-14.08-2.59-3.03-6.28-4.55-11.07-4.55-3.32,0-6.31.76-8.94,2.27-2.64,1.52-4.69,3.79-6.16,6.82-1.47,3.03-2.2,6.89-2.2,11.58v39.59h-22.88v-78.89h21.85v21.56l-4.11-6.31c2.74-5.38,6.62-9.46,11.66-12.24,5.03-2.79,10.78-4.18,17.23-4.18,7.23,0,13.56,1.83,18.99,5.5,5.43,3.67,9.02,9.26,10.78,16.79l-8.07-2.2c2.64-6.16,6.87-11.05,12.68-14.66,5.82-3.62,12.49-5.42,20.02-5.42Z" style="fill:#3f5155;"/><path d="M517.56,201.29c-8.41,0-15.86-1.76-22.36-5.28-6.5-3.52-11.63-8.33-15.4-14.44-3.76-6.11-5.65-13.07-5.65-20.9s1.88-14.93,5.65-21.04c3.76-6.11,8.89-10.9,15.4-14.37,6.5-3.47,13.95-5.21,22.36-5.21s15.74,1.74,22.29,5.21c6.55,3.47,11.68,8.24,15.4,14.3,3.71,6.06,5.57,13.1,5.57,21.12s-1.86,14.79-5.57,20.9c-3.72,6.11-8.85,10.92-15.4,14.44-6.55,3.52-13.98,5.28-22.29,5.28ZM517.56,182.53c3.81,0,7.23-.88,10.26-2.64,3.03-1.76,5.43-4.28,7.19-7.55,1.76-3.27,2.64-7.16,2.64-11.66s-.88-8.5-2.64-11.73c-1.76-3.23-4.16-5.72-7.19-7.48-3.03-1.76-6.45-2.64-10.26-2.64s-7.24.88-10.26,2.64c-3.03,1.76-5.45,4.25-7.26,7.48-1.81,3.23-2.71,7.14-2.71,11.73s.9,8.38,2.71,11.66c1.81,3.28,4.23,5.79,7.26,7.55,3.03,1.76,6.45,2.64,10.26,2.64Z" style="fill:#3f5155;"/><path d="M593.96,200.12l-33.14-78.89h23.61l27.57,67.89h-11.73l28.59-67.89h22l-33.29,78.89h-23.61Z" style="fill:#3f5155;"/><path d="M669.19,110.23c-4.2,0-7.62-1.22-10.26-3.67-2.64-2.44-3.96-5.47-3.96-9.09s1.32-6.65,3.96-9.09c2.64-2.44,6.06-3.67,10.26-3.67s7.63,1.15,10.26,3.45c2.64,2.3,3.96,5.26,3.96,8.87,0,3.81-1.3,6.96-3.89,9.46-2.59,2.49-6.04,3.74-10.34,3.74ZM657.75,200.12v-78.89h22.88v78.89h-22.88Z" style="fill:#3f5155;"/><path d="M738.55,201.29c-9,0-16.89-1.76-23.68-5.28-6.8-3.52-12.05-8.33-15.76-14.44-3.72-6.11-5.57-13.07-5.57-20.9s1.83-14.93,5.5-21.04c3.67-6.11,8.67-10.9,15.03-14.37,6.35-3.47,13.54-5.21,21.56-5.21s14.69,1.64,20.9,4.91c6.21,3.28,11.12,7.97,14.74,14.08,3.62,6.11,5.43,13.42,5.43,21.92,0,.88-.05,1.88-.15,3.01-.1,1.12-.2,2.18-.29,3.15h-64.08v-13.34h52.06l-8.8,3.96c0-4.11-.83-7.67-2.49-10.71-1.66-3.03-3.96-5.4-6.89-7.11-2.93-1.71-6.36-2.57-10.26-2.57s-7.36.86-10.34,2.57c-2.98,1.71-5.3,4.11-6.96,7.18-1.66,3.08-2.49,6.72-2.49,10.92v3.52c0,4.3.95,8.09,2.86,11.36,1.91,3.28,4.59,5.77,8.07,7.48,3.47,1.71,7.55,2.57,12.24,2.57,4.2,0,7.89-.63,11.07-1.91,3.18-1.27,6.09-3.18,8.73-5.72l12.17,13.2c-3.62,4.11-8.16,7.26-13.64,9.46-5.48,2.2-11.78,3.3-18.92,3.3Z" style="fill:#3f5155;"/><path d="M789.43,228.57v-107.34h21.85v16.13l-.44,23.46,1.47,23.31v44.43h-22.88ZM836.06,201.29c-6.65,0-12.46-1.47-17.45-4.4-4.99-2.93-8.87-7.41-11.66-13.42-2.79-6.01-4.18-13.61-4.18-22.8s1.32-16.91,3.96-22.88c2.64-5.96,6.45-10.41,11.44-13.34s10.95-4.4,17.89-4.4c7.43,0,14.1,1.69,20.02,5.06,5.91,3.37,10.61,8.09,14.08,14.15,3.47,6.06,5.21,13.2,5.21,21.41s-1.74,15.49-5.21,21.56c-3.47,6.06-8.16,10.75-14.08,14.08-5.92,3.32-12.59,4.99-20.02,4.99ZM832.1,182.53c3.81,0,7.21-.88,10.19-2.64,2.98-1.76,5.38-4.28,7.18-7.55,1.81-3.27,2.71-7.16,2.71-11.66s-.91-8.5-2.71-11.73c-1.81-3.23-4.2-5.72-7.18-7.48-2.98-1.76-6.38-2.64-10.19-2.64s-7.24.88-10.26,2.64c-3.03,1.76-5.43,4.25-7.19,7.48-1.76,3.23-2.64,7.14-2.64,11.73s.88,8.38,2.64,11.66c1.76,3.28,4.15,5.79,7.19,7.55,3.03,1.76,6.45,2.64,10.26,2.64Z" style="fill:#44999c;"/><path d="M911.14,201.29c-6.16,0-11.44-1.05-15.84-3.15-4.4-2.1-7.77-4.96-10.12-8.58-2.35-3.62-3.52-7.67-3.52-12.17s1.15-8.8,3.45-12.32c2.3-3.52,5.94-6.28,10.92-8.28,4.99-2,11.49-3.01,19.5-3.01h20.97v13.34h-18.48c-5.38,0-9.07.88-11.07,2.64-2,1.76-3.01,3.96-3.01,6.6,0,2.93,1.15,5.26,3.45,6.96,2.3,1.71,5.45,2.57,9.46,2.57s7.23-.9,10.26-2.71c3.03-1.81,5.23-4.47,6.6-7.99l3.52,10.56c-1.66,5.08-4.69,8.94-9.09,11.58-4.4,2.64-10.07,3.96-17.01,3.96ZM935.18,200.12v-15.4l-1.47-3.37v-27.57c0-4.89-1.49-8.7-4.47-11.44-2.98-2.74-7.55-4.11-13.71-4.11-4.2,0-8.34.66-12.39,1.98-4.06,1.32-7.5,3.1-10.34,5.35l-8.21-15.98c4.3-3.03,9.48-5.38,15.54-7.04,6.06-1.66,12.22-2.49,18.48-2.49,12.02,0,21.36,2.84,28.01,8.5,6.65,5.67,9.97,14.52,9.97,26.54v45.02h-21.41Z" style="fill:#44999c;"/><path d="M1008.94,196.31c-7.33,0-13.96-1.59-19.87-4.77-5.92-3.18-10.66-7.62-14.22-13.34-3.57-5.72-5.35-12.39-5.35-20.02s1.78-14.44,5.35-20.16c3.57-5.72,8.31-10.14,14.22-13.27,5.91-3.13,12.54-4.69,19.87-4.69,6.65,0,12.51,1.34,17.6,4.03,5.08,2.69,9.04,6.84,11.88,12.46,2.83,5.62,4.25,12.83,4.25,21.63s-1.42,15.86-4.25,21.48c-2.84,5.62-6.8,9.8-11.88,12.54-5.08,2.74-10.95,4.11-17.6,4.11ZM1012.46,229.74c-7.43,0-14.59-.91-21.48-2.71-6.89-1.81-12.64-4.52-17.23-8.14l9.09-16.42c3.32,2.74,7.55,4.91,12.68,6.52,5.13,1.61,10.19,2.42,15.18,2.42,8.11,0,14-1.81,17.67-5.43,3.67-3.62,5.5-8.99,5.5-16.13v-11.88l1.47-19.8-.29-19.94v-17.01h21.7v65.69c0,14.66-3.81,25.46-11.44,32.41-7.62,6.94-18.58,10.41-32.85,10.41ZM1013.49,177.54c4.01,0,7.57-.81,10.7-2.42,3.13-1.61,5.57-3.89,7.33-6.82s2.64-6.31,2.64-10.12-.88-7.31-2.64-10.19c-1.76-2.88-4.2-5.13-7.33-6.75-3.13-1.61-6.7-2.42-10.7-2.42s-7.58.81-10.7,2.42c-3.13,1.61-5.6,3.86-7.41,6.75-1.81,2.88-2.71,6.28-2.71,10.19s.9,7.19,2.71,10.12c1.81,2.93,4.28,5.21,7.41,6.82,3.13,1.61,6.69,2.42,10.7,2.42Z" style="fill:#44999c;"/><path d="M1114.67,201.29c-9,0-16.89-1.76-23.68-5.28-6.8-3.52-12.05-8.33-15.76-14.44-3.72-6.11-5.57-13.07-5.57-20.9s1.83-14.93,5.5-21.04c3.67-6.11,8.67-10.9,15.03-14.37,6.35-3.47,13.54-5.21,21.56-5.21s14.69,1.64,20.9,4.91c6.21,3.28,11.12,7.97,14.74,14.08,3.62,6.11,5.43,13.42,5.43,21.92,0,.88-.05,1.88-.15,3.01-.1,1.12-.2,2.18-.29,3.15h-64.08v-13.34h52.06l-8.8,3.96c0-4.11-.83-7.67-2.49-10.71-1.66-3.03-3.96-5.4-6.89-7.11-2.93-1.71-6.36-2.57-10.26-2.57s-7.36.86-10.34,2.57c-2.98,1.71-5.3,4.11-6.96,7.18-1.66,3.08-2.49,6.72-2.49,10.92v3.52c0,4.3.95,8.09,2.86,11.36,1.91,3.28,4.59,5.77,8.07,7.48,3.47,1.71,7.55,2.57,12.24,2.57,4.2,0,7.89-.63,11.07-1.91,3.18-1.27,6.09-3.18,8.73-5.72l12.17,13.2c-3.62,4.11-8.16,7.26-13.64,9.46-5.48,2.2-11.78,3.3-18.92,3.3Z" style="fill:#44999c;"/><path d="M140.3,189.61v5.22l-66.76,40.1v59.36l-26.67,15.8c-20.7,12.26-46.87-2.66-46.87-26.71V31.1C0,6.83,26.59-8.05,47.27,4.63l26.27,16.11v186.73c0,9.58,10.43,15.52,18.67,10.63l39.28-23.27,6.65-3.94,2.16-1.28Z" style="fill:#3f5155;"/><path d="M140.3,61.66v64.19l-47.93-29.39c-8.24-5.05-18.83.88-18.83,10.54V20.73l66.76,40.93Z" style="fill:#3f5155;"/><polygon points="252.39 130.39 192.83 164.63 192.83 93.88 252.39 130.39" style="fill:#67b1b3;"/><path d="M192.83,93.88v70.75l-52.53,30.2v-5.22l35.24-20.87c8.01-4.75,8.1-16.31.16-21.18l-35.4-21.7V61.67l52.53,32.21Z" style="fill:#67b1b3;"/><polygon points="192.83 164.63 192.83 223.62 140.3 254.74 140.3 194.83 192.83 164.63" style="fill:#67b1b3;"/><path d="M271.02,163.99c-1.28,8.74-6.24,17.01-14.88,22.13l-63.31,37.5v-58.99l59.56-34.24,4.16,2.55c2.89,1.77,5.36,3.9,7.41,6.28,5.99,6.97,8.34,16.1,7.06,24.77Z" style="fill:#67b1b3;"/><polygon points="140.3 194.83 140.3 254.74 73.54 294.29 73.54 234.92 140.3 194.83" style="fill:#3f5155;"/><rect x="23.12" y="21.39" width="24.99" height="18.92" rx="4.54" ry="4.54" style="fill:#f7fcfa;"/><rect x="23.12" y="49.92" width="24.99" height="18.92" rx="4.54" ry="4.54" style="fill:#f7fcfa;"/><rect x="23.12" y="78.44" width="24.99" height="18.92" rx="4.54" ry="4.54" style="fill:#f7fcfa;"/><rect x="23.12" y="106.97" width="24.99" height="18.92" rx="4.54" ry="4.54" style="fill:#f7fcfa;"/><rect x="23.12" y="135.5" width="24.99" height="18.92" rx="4.54" ry="4.54" style="fill:#f7fcfa;"/><rect x="23.12" y="164.03" width="24.99" height="18.92" rx="4.54" ry="4.54" style="fill:#f7fcfa;"/><rect x="23.12" y="192.56" width="24.99" height="18.92" rx="4.54" ry="4.54" style="fill:#f7fcfa;"/><rect x="23.12" y="221.09" width="24.99" height="18.92" rx="4.54" ry="4.54" style="fill:#f7fcfa;"/><rect x="23.12" y="249.62" width="24.99" height="18.92" rx="4.54" ry="4.54" style="fill:#f7fcfa;"/><rect x="23.12" y="278.15" width="24.99" height="18.92" rx="4.54" ry="4.54" style="fill:#f7fcfa;"/><rect x="229.81" y="156.61" width="24.99" height="18.92" rx="4.54" ry="4.54" transform="translate(265.57 -126.76) rotate(60.12)" style="fill:#f7fcfa;"/><rect x="205.08" y="170.83" width="24.99" height="18.92" rx="4.54" ry="4.54" transform="translate(265.48 -98.18) rotate(60.12)" style="fill:#f7fcfa;"/><rect x="180.34" y="185.04" width="24.99" height="18.92" rx="4.54" ry="4.54" transform="translate(265.4 -69.6) rotate(60.12)" style="fill:#f7fcfa;"/><rect x="155.6" y="199.25" width="24.99" height="18.92" rx="4.54" ry="4.54" transform="translate(265.31 -41.02) rotate(60.12)" style="fill:#f7fcfa;"/><rect x="130.87" y="213.47" width="24.99" height="18.92" rx="4.54" ry="4.54" transform="translate(265.22 -12.45) rotate(60.12)" style="fill:#f7fcfa;"/><rect x="106.13" y="227.68" width="24.99" height="18.92" rx="4.54" ry="4.54" transform="translate(265.14 16.13) rotate(60.12)" style="fill:#f7fcfa;"/><rect x="81.4" y="241.9" width="24.99" height="18.92" rx="4.54" ry="4.54" transform="translate(265.05 44.71) rotate(60.12)" style="fill:#f7fcfa;"/></g></svg>