<?xml version="1.0" encoding="UTF-8"?><svg id="Capa_1" xmlns="http://www.w3.org/2000/svg" viewBox="0 0 919.79 217.49"><defs><style>.cls-1,.cls-2,.cls-3{fill:#3f5155;}.cls-4{fill:#9ccecf;}.cls-5{fill:#71b6ba;}.cls-6{font-family:Montserrat-ExtraBold, Montserrat;font-size:123.61px;font-weight:700;}.cls-7{fill:#44999c;}.cls-8{fill:#f7fcfa;}.cls-9{fill:#67b1b3;}.cls-10{fill:#387e80;}.cls-2{letter-spacing:0em;}.cls-3{letter-spacing:-.01em;}</style></defs><path class="cls-1" d="M97.03,131.13v3.61l-46.17,27.73v41.05l-18.44,10.93c-14.32,8.48-32.42-1.84-32.42-18.47V21.51C0,4.72,18.39-5.57,32.69,3.2l18.17,11.14v129.14c0,6.63,7.21,10.73,12.91,7.35l27.17-16.09,4.6-2.72,1.49-.89Z"/><path class="cls-1" d="M97.03,42.65v44.39l-33.15-20.33c-5.7-3.49-13.02.61-13.02,7.29V14.34l46.17,28.31Z"/><polygon class="cls-9" points="174.55 90.18 133.36 113.86 133.36 64.93 174.55 90.18"/><path class="cls-10" d="M133.36,64.93v48.93l-36.33,20.89v-3.61l24.37-14.43c5.54-3.29,5.6-11.28.11-14.65l-24.48-15.01v-44.39l36.33,22.28Z"/><polygon class="cls-5" points="133.36 113.86 133.36 154.65 97.03 176.18 97.03 134.74 133.36 113.86"/><path class="cls-4" d="M187.44,113.41c-.89,6.04-4.32,11.76-10.29,15.31l-43.79,25.94v-40.8l41.19-23.68,2.88,1.76c2,1.22,3.71,2.7,5.12,4.34,4.14,4.82,5.77,11.13,4.88,17.13Z"/><polygon class="cls-10" points="97.03 134.74 97.03 176.18 50.86 203.53 50.86 162.47 97.03 134.74"/><rect class="cls-8" x="15.99" y="14.79" width="17.28" height="13.09" rx="4.54" ry="4.54"/><rect class="cls-8" x="15.99" y="34.52" width="17.28" height="13.09" rx="4.54" ry="4.54"/><rect class="cls-8" x="15.99" y="54.25" width="17.28" height="13.09" rx="4.54" ry="4.54"/><rect class="cls-8" x="15.99" y="73.98" width="17.28" height="13.09" rx="4.54" ry="4.54"/><rect class="cls-8" x="15.99" y="93.71" width="17.28" height="13.09" rx="4.54" ry="4.54"/><rect class="cls-8" x="15.99" y="113.44" width="17.28" height="13.09" rx="4.54" ry="4.54"/><rect class="cls-8" x="15.99" y="133.17" width="17.28" height="13.09" rx="4.54" ry="4.54"/><rect class="cls-8" x="15.99" y="152.91" width="17.28" height="13.09" rx="4.54" ry="4.54"/><rect class="cls-8" x="15.99" y="172.64" width="17.28" height="13.09" rx="4.54" ry="4.54"/><rect class="cls-8" x="15.99" y="192.37" width="17.28" height="13.09" rx="4.54" ry="4.54"/><rect class="cls-8" x="158.94" y="108.31" width="17.28" height="13.09" rx="4.54" ry="4.54" transform="translate(183.67 -87.67) rotate(60.12)"/><rect class="cls-8" x="141.83" y="118.14" width="17.28" height="13.09" rx="4.54" ry="4.54" transform="translate(183.61 -67.9) rotate(60.12)"/><rect class="cls-8" x="124.72" y="127.97" width="17.28" height="13.09" rx="4.54" ry="4.54" transform="translate(183.55 -48.14) rotate(60.12)"/><rect class="cls-8" x="107.62" y="137.8" width="17.28" height="13.09" rx="4.54" ry="4.54" transform="translate(183.49 -28.37) rotate(60.12)"/><rect class="cls-8" x="90.51" y="147.63" width="17.28" height="13.09" rx="4.54" ry="4.54" transform="translate(183.43 -8.61) rotate(60.12)"/><rect class="cls-8" x="73.4" y="157.47" width="17.28" height="13.09" rx="4.54" ry="4.54" transform="translate(183.37 11.16) rotate(60.12)"/><rect class="cls-8" x="56.29" y="167.3" width="17.28" height="13.09" rx="4.54" ry="4.54" transform="translate(183.31 30.92) rotate(60.12)"/><text class="cls-6" transform="translate(232.63 144.71)"><tspan class="cls-1" x="0" y="0">M</tspan><tspan class="cls-3" x="117.93" y="0">o</tspan><tspan class="cls-2" x="198.4" y="0">vie</tspan><tspan class="cls-7" x="393.09" y="0">blog</tspan></text></svg>